<svg xmlns="http://www.w3.org/2000/svg" viewBox="0 0 64 64" enable-background="new 0 0 64 64"><circle fill="#ffdd67" cx="32" cy="32" r="30"/><path fill="#664e27" d="m51 35.32c0 8.05-6.311 17.447-19 17.447-12.693 0-19-9.395-19-17.447 0 0 6.307 0 19 0 12.689 0 19 0 19 0"/><path fill="#ff717f" d="m41.1 51.02c-2.408-1.408-5.432-2.299-9.105-2.299s-6.697.891-9.104 2.299c2.406 1.41 5.43 2.299 9.104 2.299s6.697-.889 9.105-2.299"/><path fill="#664e27" d="m32 53.764c-12.99 0-20-9.504-20-18.447v-1h40v1c0 8.943-7.01 18.447-20 18.447m-17.967-17.448c.504 7.666 6.764 15.448 17.967 15.448s17.465-7.781 17.969-15.447h-35.936z"/><circle fill="#664e27" cx="20.5" cy="22" r="4"/><circle fill="#664e27" cx="43.5" cy="22" r="4"/></svg>
